<?xml version="1.0" encoding="UTF-8" ?>
<!DOCTYPE svg PUBLIC "-//W3C//DTD SVG 1.1//EN" "http://www.w3.org/Graphics/SVG/1.1/DTD/svg11.dtd">
<svg width="677pt" height="677pt" viewBox="0 0 677 677" version="1.1" xmlns="http://www.w3.org/2000/svg">
<path fill="#fefefe" d=" M 0.00 0.00 L 677.00 0.00 L 677.00 677.00 L 0.00 677.00 L 0.00 0.00 Z" />
<path fill="#706f6f" d=" M 327.39 26.37 C 337.58 25.85 348.07 25.15 358.02 27.96 C 361.80 28.94 365.42 30.47 368.99 32.04 C 438.95 72.43 509.05 112.61 579.00 153.03 C 583.79 156.56 588.56 161.16 589.91 167.19 C 590.93 174.01 587.65 181.11 582.17 185.19 C 576.45 189.31 570.03 192.33 564.07 196.08 C 498.94 233.62 433.78 271.10 368.68 308.67 C 357.87 313.60 345.82 315.64 333.99 314.96 C 323.84 313.88 313.46 311.87 304.77 306.22 C 246.41 272.59 188.05 238.97 129.69 205.32 C 118.81 198.81 107.52 193.00 96.86 186.13 C 93.12 183.16 89.47 179.56 88.16 174.83 C 87.82 171.96 87.83 169.04 88.16 166.17 C 90.03 160.07 94.53 155.10 100.17 152.20 C 162.10 116.44 224.09 80.78 286.05 45.08 C 299.31 37.85 311.90 28.05 327.39 26.37 Z" />
<path fill="#fefefe" d=" M 330.40 146.40 C 344.58 144.71 359.81 146.99 371.70 155.29 C 375.14 158.57 379.47 161.72 380.27 166.74 C 382.04 171.19 379.90 175.84 377.62 179.65 C 374.07 184.64 368.36 187.41 362.99 189.98 C 353.31 194.44 342.41 194.39 331.98 194.04 C 324.54 193.86 317.45 191.23 310.72 188.25 C 306.02 185.91 302.09 182.18 298.97 178.00 C 294.49 171.09 297.67 161.65 303.81 156.89 C 311.16 150.47 320.94 147.79 330.40 146.40 Z" />
<path fill="#adacab" d=" M 67.38 209.39 C 70.21 208.93 73.05 209.63 75.80 210.21 C 81.97 211.56 86.78 215.93 92.34 218.64 C 155.29 255.01 218.18 291.48 281.13 327.86 C 288.92 332.48 297.22 336.83 303.12 343.90 C 310.87 352.88 316.89 363.52 319.92 375.01 C 323.21 386.74 321.36 399.00 321.99 410.99 C 322.13 483.35 321.91 555.70 322.09 628.05 C 322.12 633.68 320.25 639.34 316.81 643.81 C 311.91 649.37 303.60 650.32 296.82 648.24 C 289.59 645.62 283.38 640.97 276.65 637.37 C 212.43 600.29 148.30 563.07 84.12 525.93 C 70.29 518.38 61.76 504.36 55.64 490.33 C 53.08 483.20 51.65 475.60 52.02 468.00 C 52.09 387.99 52.05 307.97 52.04 227.96 C 52.61 221.60 55.28 214.36 61.42 211.44 C 63.28 210.44 65.30 209.75 67.38 209.39 Z" />
<path fill="#b82404" d=" M 569.34 226.36 C 572.25 224.78 574.97 222.83 578.13 221.75 C 578.31 258.83 578.11 295.92 578.22 333.00 C 577.83 342.16 577.35 351.49 574.27 360.21 C 570.91 369.33 565.18 377.54 557.85 383.90 C 552.19 388.65 545.95 392.67 539.43 396.11 C 533.99 398.75 528.10 401.16 521.94 400.64 C 517.93 400.62 514.55 397.72 512.74 394.33 C 509.98 389.03 509.30 382.93 509.29 377.04 C 509.30 350.69 509.30 324.35 509.30 298.00 C 509.49 285.58 508.90 273.12 509.58 260.72 C 515.63 257.93 520.98 253.88 526.94 250.90 C 541.03 242.64 555.17 234.47 569.34 226.36 Z" />
<path fill="#fefefe" d=" M 89.35 252.35 C 95.13 250.76 100.94 253.44 106.04 255.95 C 119.11 263.27 127.67 276.51 132.84 290.24 C 135.80 298.89 137.69 308.57 134.48 317.43 C 132.36 324.23 125.13 329.04 118.02 328.07 C 111.49 327.74 105.85 324.06 100.86 320.16 C 92.52 313.56 86.42 304.48 82.01 294.89 C 78.00 284.64 74.41 272.75 79.02 262.08 C 80.52 257.29 84.71 253.89 89.35 252.35 Z" />
<path fill="#b82404" d=" M 391.99 328.99 C 414.88 315.61 437.91 302.46 460.77 289.02 C 460.61 329.35 460.70 369.68 460.72 410.01 C 461.65 420.99 463.50 433.20 472.12 440.98 C 479.58 447.85 490.49 448.65 500.04 447.04 C 517.99 443.74 534.21 434.87 549.79 425.76 C 565.86 416.03 580.95 404.50 593.65 390.60 C 610.81 371.67 623.75 347.74 625.54 321.91 C 626.55 344.25 625.84 366.64 626.06 389.00 C 626.08 414.00 626.02 439.00 626.08 464.00 C 626.44 472.46 624.77 480.92 621.91 488.86 C 617.26 499.74 611.11 510.27 602.26 518.28 C 596.70 522.93 590.46 526.69 584.09 530.13 C 527.05 563.05 470.10 596.12 413.07 629.06 C 405.98 633.36 398.63 637.20 391.63 641.65 C 384.88 645.33 377.34 649.66 369.36 647.69 C 363.17 646.42 358.53 641.06 356.83 635.16 C 355.82 631.54 354.94 627.82 354.86 624.05 C 354.88 547.36 354.88 470.67 354.86 393.99 C 354.79 389.95 355.80 386.02 355.97 382.01 C 357.57 365.72 366.33 351.08 377.30 339.31 C 381.98 335.59 386.62 331.71 391.99 328.99 Z" />
<path fill="#fefefe" d=" M 420.39 529.40 C 426.08 528.16 432.43 530.39 435.59 535.40 C 438.97 539.22 439.02 544.47 439.63 549.24 C 439.39 557.92 437.47 566.65 433.32 574.34 C 428.88 584.13 422.04 593.00 413.22 599.21 C 408.19 601.91 402.97 605.42 397.00 604.93 C 390.56 605.15 384.31 600.65 382.67 594.39 C 379.96 587.08 381.19 579.16 382.81 571.76 C 385.47 561.15 391.23 551.53 398.32 543.29 C 404.20 536.79 411.69 531.25 420.39 529.40 Z" />
<path fill="#fefefe" d=" M 252.41 530.41 C 261.76 530.22 270.50 535.66 276.72 542.32 C 282.55 547.66 286.88 554.40 290.55 561.34 C 295.08 572.08 298.62 584.38 294.81 595.88 C 292.41 603.39 283.63 608.52 275.99 606.04 C 269.95 604.53 264.60 601.09 259.84 597.18 C 246.49 584.58 237.06 566.67 238.02 547.96 C 238.22 539.85 243.89 531.35 252.41 530.41 Z" />
</svg>
